<svg width="27" height="30" viewBox="0 0 27 30" fill="none" xmlns="http://www.w3.org/2000/svg">
<path d="M25.9413 10.8819C25.7693 10.4806 25.3106 10.2512 24.8806 10.3659L23.5332 10.7959C23.4472 10.8246 23.3325 10.7959 23.2752 10.7099L23.1318 10.4806C23.0745 10.3946 23.0172 10.3085 22.9311 10.2512L21.7558 9.33383C21.7271 9.30516 21.6984 9.27649 21.6984 9.24783L21.2684 8.30178L20.609 6.95437C20.5804 6.89704 20.5517 6.86837 20.523 6.81103L19.8637 5.97965C19.8637 5.95099 19.835 5.95099 19.835 5.92232L19.4623 5.03361C19.4623 5.00494 19.4336 4.97627 19.4336 4.9476V3.80087C19.4336 3.37085 19.1183 2.99817 18.6883 2.94083L18.4302 2.91216H18.1436L17.1402 3.11284H17.0542L15.5921 2.74015C15.5634 2.74015 15.5348 2.74015 15.5061 2.71148L14.9614 2.62548C14.5887 2.56814 14.216 2.76882 14.044 3.11284L14.0153 3.17017C13.9867 3.22751 13.9293 3.28485 13.872 3.28485C13.8147 3.31352 13.7573 3.28485 13.7 3.25618L13.0406 2.82616C12.9546 2.76882 12.8686 2.74015 12.7539 2.71148L11.9799 2.53947C11.8939 2.51081 11.8366 2.45347 11.8079 2.36747L11.7506 1.76543C11.6932 1.33541 11.3205 0.991394 10.8905 0.991394H9.05575C8.99842 0.991394 8.91241 0.991394 8.85508 1.02006L7.22099 1.45008C7.16366 1.45008 7.10632 1.45008 7.04898 1.42142L6.90564 1.33541C6.59029 1.0774 6.16027 1.10607 5.87359 1.33541L5.07088 1.99478C5.04221 2.02345 5.01354 2.05212 4.98487 2.08078L4.44018 2.65415C4.29684 2.79749 4.21083 2.99817 4.18217 3.22751V3.51419C4.18217 3.6002 4.12483 3.65753 4.06749 3.6862L3.32212 4.11622C3.23612 4.17356 3.15011 4.2309 3.09278 4.3169L2.00339 5.60697C1.98427 5.62608 1.96516 5.64519 1.94605 5.6643L1.48736 6.295C1.37269 6.46701 1.31535 6.69636 1.34402 6.89704L1.48736 8.01509V8.1011L1.05734 9.41983C1.02867 9.47717 1 9.56318 1 9.64918V10.1939C1 10.4519 1.11467 10.6812 1.28668 10.8532L1.60203 11.1399C1.62114 11.159 1.64026 11.1781 1.65937 11.1973L2.08939 12.0573C2.14673 12.1433 2.20406 12.2293 2.2614 12.3153L3.86682 13.8347C4.12483 14.0641 4.49752 14.1214 4.81287 13.9781L5.21422 13.7774C5.24289 13.7487 5.30022 13.7487 5.32889 13.7487L6.30361 13.8347C6.38962 13.8347 6.50429 13.8347 6.59029 13.8061L8.42505 13.3187C8.53973 13.29 8.62573 13.3474 8.68307 13.462V13.4907C8.82641 13.8634 9.1991 14.0641 9.60045 14.0354L9.97314 13.9781C10.0305 13.9781 10.1165 13.9781 10.1451 14.0354L10.3172 14.2074C10.3745 14.2648 10.4032 14.3221 10.3745 14.4081L10.1165 15.7842C10.0878 16.0135 10.1451 16.2715 10.2885 16.4435L11.6359 18.2496C11.6932 18.307 11.6932 18.4216 11.6359 18.479C11.4639 18.737 11.4639 19.081 11.6359 19.3677L11.7792 19.6257C11.8079 19.683 11.8079 19.769 11.7792 19.8264L11.2059 21.1164C11.1485 21.2311 11.1199 21.3745 11.1485 21.4891L11.1772 22.2345C11.1772 22.3778 11.2345 22.5212 11.2919 22.6359L12.0086 23.8686C12.0372 23.8973 12.0372 23.9259 12.0372 23.9546L12.1519 24.9866C12.1519 25.0727 12.1806 25.1587 12.2093 25.2447L12.7826 26.5347C12.7826 26.5634 12.8113 26.5634 12.8113 26.5921L13.2126 27.3374C13.2413 27.3948 13.2413 27.4521 13.2126 27.5381C13.1266 27.8248 13.184 28.1115 13.356 28.3408L13.5853 28.6275C13.7573 28.8282 13.9867 28.9429 14.2734 28.9429C14.3594 28.9429 14.474 28.9142 14.56 28.8855L15.0761 28.7135H16.2801C16.5095 28.7135 16.7388 28.6275 16.9108 28.4555L17.5702 27.7961C17.5989 27.7675 17.5989 27.7388 17.6275 27.7388L18.0576 27.1654L18.1149 27.1081L18.4302 26.9074C18.6596 26.7641 18.8029 26.5347 18.8316 26.248L18.8889 25.6747C18.8889 25.6173 18.9463 25.5313 19.0036 25.5027L19.5196 25.1873C19.8063 25.0153 19.9497 24.7 19.921 24.3846L19.835 23.4386C19.835 23.3526 19.8637 23.2952 19.921 23.2379L21.1251 22.4639C21.2111 22.4065 21.2684 22.3492 21.3257 22.2918L21.7844 21.7471C21.8991 21.6038 21.9564 21.4318 21.9851 21.2598L22.0424 20.5144V20.3137L21.8418 19.253L21.6697 17.6476C21.6697 17.5903 21.6697 17.5329 21.6984 17.5043L22.7305 15.9848C22.7305 15.9562 22.7591 15.9562 22.7591 15.9275L24.2499 14.6661C24.3359 14.6088 24.3932 14.5228 24.4219 14.4368L25.1959 13.118C25.1959 13.0894 25.2246 13.0607 25.2246 13.0607L25.884 11.6846C26.0273 11.3693 26.0273 11.1113 25.9413 10.8819ZM22.2144 15.4975L21.1824 17.0169C21.0677 17.1889 21.0104 17.3896 21.039 17.5903L21.2111 19.1957V19.253L21.4117 20.3137V20.3711L21.3544 21.1164C21.3544 21.1738 21.3257 21.2024 21.2971 21.2311L20.8957 21.8045C20.8957 21.8331 20.867 21.8332 20.8384 21.8618L19.6343 22.6359C19.3763 22.8079 19.2043 23.1232 19.233 23.4386L19.319 24.3846C19.319 24.4706 19.2903 24.5566 19.2043 24.5853L18.6883 24.9006C18.4589 25.044 18.2869 25.2733 18.2869 25.56L18.2296 26.1334C18.2296 26.1907 18.1722 26.248 18.1149 26.3054L17.7995 26.5061C17.7135 26.5634 17.6275 26.6207 17.5702 26.7067L17.1115 27.2801L16.4521 27.9395C16.4235 27.9681 16.3661 27.9968 16.3088 27.9968H15.1907C15.1047 27.9968 14.9901 28.0255 14.9041 28.0541L14.388 28.2262C14.302 28.2548 14.216 28.2262 14.1587 28.1688L13.9293 27.8821C13.872 27.8248 13.872 27.7388 13.9007 27.6528C13.9867 27.4234 13.958 27.1941 13.8433 26.9648L13.442 26.2194L12.8686 24.9293C12.8686 24.9006 12.84 24.872 12.84 24.872L12.7539 23.8113C12.7539 23.6966 12.6966 23.5819 12.6393 23.4672L11.9226 22.2345C11.8939 22.2058 11.8939 22.1772 11.8939 22.1485L11.8652 21.4031C11.8652 21.3745 11.8652 21.3458 11.8939 21.3171L12.4673 20.0271C12.5819 19.769 12.5533 19.4824 12.4099 19.253L12.2666 18.995C12.2379 18.9377 12.2379 18.8517 12.2666 18.7657C12.4386 18.4503 12.4099 18.0776 12.2093 17.8196L10.8618 16.0135C10.8332 15.9562 10.8045 15.8988 10.8332 15.8415L11.0912 14.4654C11.1485 14.1788 11.0339 13.8921 10.8332 13.6914L10.6612 13.5194C10.4892 13.376 10.2885 13.29 10.0591 13.29H9.94447L9.57178 13.3474C9.48578 13.3474 9.3711 13.3187 9.34244 13.204V13.1754C9.17043 12.774 8.7404 12.5447 8.33905 12.6593L6.44695 13.1467H6.36095L5.38623 13.0607C5.24289 13.0607 5.07088 13.0894 4.92754 13.1467L4.52618 13.3474C4.44018 13.376 4.35418 13.376 4.29684 13.3187L2.72009 11.7993C2.70098 11.7802 2.68187 11.7611 2.66275 11.742L2.23273 10.8819C2.17539 10.7959 2.11806 10.6812 2.03205 10.6239L1.77404 10.3372C1.7167 10.3085 1.68804 10.2512 1.68804 10.1652V9.56318L2.11806 8.24444C2.14673 8.12977 2.17539 8.01509 2.14673 7.87175L2.00339 6.7537C2.00339 6.69636 2.00339 6.63902 2.03205 6.61035L2.51941 5.97965L3.6088 4.68959C3.62792 4.67048 3.64703 4.65136 3.66614 4.63225L4.38284 4.20223C4.64086 4.05889 4.81287 3.80087 4.81287 3.48552V3.19884C4.81287 3.14151 4.84153 3.08417 4.8702 3.0555L5.44357 2.48214L6.24627 1.82277C6.33228 1.76543 6.41828 1.76543 6.50429 1.82277L6.64763 1.90878C6.84831 2.05212 7.02031 2.02345 7.24966 1.99478L9.02709 1.62209H10.9192C11.0339 1.62209 11.1199 1.7081 11.1199 1.82277L11.1772 2.48214C11.2059 2.85482 11.4925 3.14151 11.8366 3.22751L12.6106 3.39952C12.6393 3.39952 12.6679 3.42819 12.6679 3.42819L13.3273 3.85821C13.528 4.00155 13.786 4.03022 14.044 3.97288C14.2734 3.91555 14.474 3.71487 14.5887 3.48552L14.6174 3.42819C14.646 3.34218 14.7607 3.28485 14.8467 3.31352L15.3914 3.39952L16.8535 3.77221C16.9682 3.80087 17.1115 3.80087 17.2262 3.77221L18.2296 3.57153H18.2869L18.5449 3.6002C18.6596 3.6002 18.7456 3.71487 18.7456 3.80087V4.9476C18.7456 5.06227 18.7743 5.17695 18.8029 5.29162L19.1756 6.18033C19.2043 6.23767 19.233 6.32367 19.2903 6.38101L19.9497 7.21239L19.9783 7.24105L20.6377 8.55979L21.0677 9.50584C21.1251 9.62051 21.2111 9.73518 21.3257 9.82119L22.5011 10.7386C22.5202 10.7577 22.5393 10.7768 22.5585 10.7959L22.7018 11.0253C22.9025 11.3693 23.3038 11.5126 23.7052 11.3979L25.0526 10.9679C25.1673 10.9392 25.2819 10.9966 25.3106 11.1113C25.3393 11.1686 25.3393 11.2259 25.3106 11.2833L24.6512 12.688L23.8772 14.0067C23.8772 14.0354 23.8485 14.0354 23.8199 14.0641L22.3291 15.3255C22.3291 15.3828 22.2718 15.4401 22.2144 15.4975Z" fill="currentColor" stroke="currentColor" stroke-width="0.3"/>
</svg>
