<svg width="23" height="24" viewBox="0 0 23 24" fill="none" xmlns="http://www.w3.org/2000/svg">
<path d="M22.4144 7.74427C22.0983 4.72004 20.7813 3.24482 20.3751 2.85908C19.3434 1.79886 18.0301 1.15369 16.6397 1.02412C15.2493 0.894542 13.86 1.28783 12.6883 2.14271C12.112 2.56857 11.6205 3.1252 11.2451 3.77717L10.9133 3.40205C10.3298 2.73555 9.6346 2.20693 8.86822 1.84706C8.10185 1.48718 7.27966 1.30326 6.44964 1.30602H6.40173C5.58199 1.30863 4.77109 1.49727 4.01721 1.86073C3.26334 2.22419 2.58188 2.75506 2.01334 3.42177C1.97931 3.4612 1.94528 3.50165 1.91214 3.5426L1.89602 3.56383C1.30583 4.39243 0.310379 6.14975 0.257987 8.60422C0.198878 11.3595 1.38688 13.3362 1.90318 14.0642C4.93386 18.233 7.90945 20.4888 10.787 22.6683C11.0726 22.884 11.4084 22.9994 11.752 22.9999C11.7771 22.9999 11.8021 22.9999 11.8272 22.9999C12.1814 22.9828 12.5222 22.8424 12.8029 22.598C15.8927 19.916 19.0895 17.1431 21.2322 13.411C21.7947 12.4338 22.6902 10.3989 22.4144 7.74427ZM20.6304 12.9707C18.5553 16.5859 15.4091 19.3159 12.3663 21.9559C12.2021 22.0991 12.0027 22.1814 11.7954 22.1915C11.5793 22.2013 11.366 22.1337 11.186 21.9984C8.35187 19.8498 5.42106 17.6279 2.45934 13.5521C1.99498 12.8994 0.920723 11.1123 0.972219 8.62394C1.01969 6.4182 1.91259 4.83227 2.44367 4.08051C2.47054 4.04765 2.49741 4.0158 2.52472 3.98344C3.02734 3.39385 3.62987 2.92442 4.29645 2.60307C4.96303 2.28172 5.68005 2.11502 6.40486 2.11288C7.14757 2.10408 7.88427 2.26397 8.57115 2.58305C9.25804 2.90214 9.88107 3.3739 10.4032 3.9703L10.9791 4.62449C11.0253 4.68151 11.0829 4.72532 11.147 4.7523C11.2112 4.77928 11.2801 4.78867 11.3481 4.77968C11.4161 4.7707 11.4812 4.7436 11.5381 4.70062C11.595 4.65764 11.6421 4.60001 11.6754 4.53247C12.0119 3.84205 12.4925 3.25479 13.0757 2.82167C14.1153 2.06288 15.3481 1.71397 16.5819 1.82938C17.8156 1.9448 18.9807 2.51805 19.8956 3.45968L19.9068 3.4703C21.2869 4.7807 21.6303 7.14771 21.7051 7.83931C21.9541 10.2417 21.1391 12.0855 20.6304 12.9707Z" fill="#FCF1DC" stroke="#FCF1DC" stroke-width="0.4"/>
</svg>
