<svg width="20" height="28" viewBox="0 0 20 28" fill="none" xmlns="http://www.w3.org/2000/svg">
<path d="M15.0099 0.645363C14.9453 0.538628 14.8228 0.483286 14.7002 0.504369C14.5777 0.52677 14.4828 0.621645 14.4578 0.742871C13.9953 3.1648 11.8329 4.27168 9.32934 5.56028C7.26188 6.61969 4.9137 7.82011 3.27731 10.0036C0.440299 13.9713 0.35202 17.7622 2.99005 21.9788H2.99137C3.05857 22.0868 3.18639 22.1409 3.31157 22.1132C3.43543 22.0855 3.52899 21.9827 3.5448 21.8562C4.14566 16.911 7.64268 13.3188 11.239 11.2948C6.51634 15.875 4.63067 20.2472 4.18944 27.1837C4.18417 27.2654 4.21316 27.3458 4.26982 27.4051C4.32648 27.4657 4.40423 27.4999 4.48592 27.4999H5.88661C6.05001 27.4999 6.18441 27.3682 6.18573 27.2035C6.20286 25.8884 6.3623 24.5786 6.66143 23.2965C11.9204 23.6338 15.7494 21.735 18.0568 17.6118C20.9438 11.3898 18.2795 6.03602 15.0103 0.64515L15.0099 0.645363ZM17.5201 17.326C15.28 21.3304 11.6603 23.0778 6.47254 22.6693C6.32627 22.6574 6.19187 22.7523 6.15497 22.8959C5.83214 24.2031 5.64898 25.5405 5.60944 26.8859H4.80565C5.32484 19.6161 7.53856 15.252 13.1745 10.3132H13.1758C13.2865 10.2157 13.3102 10.0536 13.2324 9.92843C13.1547 9.80457 12.9979 9.7545 12.8622 9.81116C8.75348 11.5479 4.13915 15.3535 3.0796 20.943C1.02533 17.2496 1.25063 13.8591 3.75425 10.3516C5.31177 8.28541 7.48478 7.16933 9.60355 6.08603C11.9069 4.90932 14.0904 3.78928 14.8585 1.56243C17.9616 6.77519 20.178 11.6325 17.5201 17.326Z" fill="currentColor" stroke="currentColor" stroke-width="0.4"/>
</svg>
