<svg width="26" height="26" viewBox="0 0 26 26" fill="none" xmlns="http://www.w3.org/2000/svg">
<path d="M13.3319 0.50016C6.44043 0.50016 0.832031 6.10884 0.832031 13C0.832031 19.8912 6.44071 25.4999 13.3319 25.4999C17.0228 25.4999 20.3458 23.8931 22.6357 21.3405C22.6664 21.3055 22.7014 21.2704 22.732 21.231C22.732 21.2267 22.7364 21.2266 22.7364 21.2223C24.6629 19.0244 25.8319 16.1435 25.8319 12.9998C25.8319 6.10832 20.2231 0.50016 13.3319 0.50016ZM8.71293 2.34781C8.71293 2.34343 8.71731 2.33905 8.71731 2.33467C10.1315 1.71734 11.6945 1.37582 13.3321 1.37582C14.3785 1.37582 15.3899 1.51593 16.353 1.77862C15.8889 2.29965 15.3942 3.17093 15.797 3.94151C16.0728 4.47564 16.191 5.11489 16.0641 5.43012C16.029 5.52644 15.9809 5.55271 15.9415 5.56585C15.2935 5.78914 13.4896 6.80051 13.3889 8.10962C13.3408 8.16654 13.0124 8.23659 12.5089 8.08335C11.966 7.9126 11.3093 7.49665 11.2304 6.87058C10.9984 5.01856 9.42658 4.41437 8.8793 4.40123C8.8005 4.40123 8.76109 4.37934 8.71293 4.31366C8.48964 4.00717 8.48964 3.10961 8.71293 2.34781ZM4.65437 20.7234C2.82427 18.67 1.70769 15.9643 1.70769 13.0003C1.70769 11.3628 2.04921 9.79971 2.66654 8.38549C2.90734 8.52997 4.39596 9.44065 5.13151 10.4477C6.06408 11.7174 6.82152 12.3478 8.59911 12.4748C9.81189 12.558 11.121 12.9608 11.988 13.2279C12.2682 13.3154 12.4958 13.3855 12.6578 13.4249C13.1438 13.5475 13.4722 13.762 13.6429 14.0685C13.9056 14.5414 13.7261 15.1193 13.7218 15.1193C13.7086 15.1631 13.7042 15.2025 13.6999 15.2463C13.6999 15.2725 13.6648 15.8855 12.6447 15.8855C11.0642 15.8855 9.25585 16.9056 8.99329 17.9477C8.85318 18.5037 7.78488 19.3925 6.6509 19.4231C5.53881 19.4582 4.92584 20.2418 4.65437 20.7234ZM13.3322 24.6245C10.2193 24.6245 7.3909 23.3942 5.3067 21.3934V21.389C5.32421 21.3452 5.70513 20.3295 6.6771 20.2988C8.19636 20.255 9.60193 19.1342 9.84263 18.1622C9.97397 17.6325 11.34 16.7612 12.6447 16.7612C14.0721 16.7612 14.523 15.8636 14.5712 15.3382C14.6325 15.1193 14.7988 14.3575 14.4135 13.6526C14.1246 13.1228 13.6036 12.7594 12.868 12.5755C12.7192 12.5361 12.5046 12.4705 12.2463 12.3917C11.34 12.1158 9.97396 11.6955 8.66493 11.5992C7.13692 11.4897 6.62904 11.0081 5.84098 9.93108C4.9303 8.68765 3.14396 7.65 3.06953 7.6062C3.06078 7.60183 3.0564 7.59745 3.04764 7.59745C4.1028 5.58344 5.73592 3.91969 7.72378 2.82519C7.62746 3.49069 7.63622 4.32258 8.00837 4.83043C8.21415 5.11501 8.50748 5.26826 8.85774 5.27703C9.02849 5.28141 10.1931 5.61855 10.3595 6.98017C10.5302 8.32868 12.0539 9.05109 13.074 9.05109H13.1178C13.9103 9.03358 14.2255 8.58701 14.2605 8.17981C14.3174 7.47054 15.5652 6.62114 16.2264 6.39347C16.5285 6.28839 16.7561 6.06949 16.8787 5.75425C17.1502 5.07124 16.8831 4.12991 16.5722 3.53446C16.3489 3.1054 16.9269 2.41799 17.1502 2.21221C17.1983 2.16842 17.2334 2.11588 17.2552 2.05897C19.4706 2.85143 21.3752 4.30502 22.7325 6.17469C22.3034 6.41111 20.8805 7.20796 20.2062 7.61076C19.243 8.1887 18.6126 10.5224 18.7045 11.0128C18.849 11.8271 18.5381 11.9454 17.8157 12.138C17.391 12.2518 16.9138 12.3788 16.7255 12.8298C16.1957 14.0951 16.6336 14.8744 16.9532 15.448C17.1371 15.7764 17.2421 15.9734 17.2027 16.1617C17.102 16.3893 16.2045 16.8929 15.609 17.2212C14.3568 17.9217 13.271 18.5259 13.2273 19.3053C13.2185 19.5286 13.2886 19.8569 13.687 20.1415C14.6677 20.8377 15.6003 21.096 16.4628 20.9121C17.5004 20.6888 18.0565 19.8788 18.1572 19.7168C18.7877 18.8893 19.5451 18.2676 19.7465 18.2983C19.7509 18.3027 19.961 18.4997 19.8779 19.6336C19.8122 20.483 20.7842 20.9778 21.5285 21.2273C19.4269 23.3289 16.5283 24.6245 13.3322 24.6245ZM22.1938 20.5132C21.4626 20.325 20.7315 19.9616 20.749 19.6989C20.8103 18.8802 20.8059 17.7637 20.066 17.4835C19.1334 17.1332 17.925 18.5737 17.4478 19.2042C17.439 19.2173 17.4259 19.2348 17.4171 19.2479C17.4171 19.2523 17.0187 19.9003 16.2656 20.0579C15.657 20.1849 14.9609 19.9747 14.1947 19.4274C14.129 19.3793 14.1071 19.3486 14.1028 19.3486C14.1553 19.0334 15.425 18.3285 16.0336 17.987C17.2508 17.3083 17.9425 16.9012 18.0564 16.3539C18.1702 15.8198 17.9294 15.395 17.7148 15.0185C17.4346 14.515 17.1676 14.0378 17.5266 13.1753C17.5791 13.1096 17.8681 13.0308 18.0432 12.987C18.6781 12.8163 19.8646 12.501 19.5669 10.8811C19.5581 10.5045 20.1098 8.68756 20.657 8.35918C21.3488 7.94324 22.9031 7.08073 23.2227 6.90122C24.3217 8.67442 24.9565 10.7628 24.9565 13.0003C24.9565 15.8637 23.9145 18.4862 22.1938 20.5132Z" fill="#FCF1DC" stroke="#FCF1DC" stroke-width="0.1"/>
</svg>
