<svg width="28" height="30" viewBox="0 0 28 30" fill="none" xmlns="http://www.w3.org/2000/svg">
<path d="M13.3067 29H10.724C10.5609 29 10.4248 28.8762 10.4089 28.7141C8.64313 10.6118 0.743393 1.697 0.663921 1.60898C0.563235 1.49753 0.554369 1.33067 0.643024 1.2094C0.731678 1.08814 0.893789 1.04634 1.03025 1.1084C8.57442 4.55452 11.3024 16.2126 12.075 20.5886C13.6711 14.3676 17.0751 9.35547 19.0648 6.81267C19.2047 6.63378 19.3339 6.4723 19.4504 6.32887C17.4693 7.27906 16.3079 10.0204 16.2946 10.0524C16.2408 10.1815 16.11 10.2604 15.9698 10.2455C15.8308 10.2312 15.7177 10.1274 15.6915 9.98998C15.6639 9.84623 15.0418 6.43937 17.1989 3.82945C19.0109 1.63684 22.219 0.705339 26.696 1.08117C26.8071 1.09035 26.905 1.15748 26.954 1.25785C27.0031 1.35822 26.9955 1.47632 26.9347 1.56972C26.0485 2.92866 25.7461 4.29901 25.4263 5.75009C25.1616 6.95009 24.8881 8.19061 24.2555 9.40328C23.1112 11.5965 20.3702 11.8337 19.2443 11.8337C19.129 11.8337 19.0325 11.8311 18.9574 11.8283C14.229 17.9841 13.6284 28.5925 13.623 28.6998C13.6141 28.868 13.4751 29 13.3067 29ZM11.0108 28.3668H13.0097C13.1395 26.5307 14.014 17.0931 18.5607 11.3071C18.6266 11.2229 18.7304 11.1779 18.8371 11.1874C18.8438 11.1878 18.9957 11.2004 19.2443 11.2004C20.2543 11.2004 22.7097 10.9968 23.6938 9.1104C24.2874 7.97214 24.5404 6.8266 24.808 5.61362C25.0933 4.31959 25.3874 2.98597 26.1302 1.67452C22.1268 1.42787 19.2956 2.29099 17.6903 4.22872C16.4286 5.75199 16.2158 7.62798 16.2275 8.78681C16.9304 7.56877 18.3311 5.66935 20.3401 5.4056C20.4715 5.38882 20.6004 5.45499 20.6621 5.57309C20.7239 5.69119 20.7052 5.83494 20.6156 5.93309C20.6115 5.93753 20.1983 6.3922 19.5638 7.20307C17.8524 9.39061 13.7208 15.245 12.3267 22.3436C12.2966 22.4963 12.1595 22.595 12.0044 22.5992C11.8486 22.5935 11.7204 22.4754 11.7017 22.3208C11.6827 22.1638 9.80766 7.38323 2.09126 2.41067C4.27658 5.43188 9.55468 14.0437 11.0108 28.3668Z" fill="#FCF1DC" stroke="#FCF1DC" stroke-width="0.3"/>
</svg>
