<svg width="20" height="21" viewBox="0 0 20 21" fill="none" xmlns="http://www.w3.org/2000/svg">
<path d="M9.93894 1.13574C4.70272 1.13574 0.441406 5.39727 0.441406 10.6333C0.441406 15.8693 4.70294 20.1308 9.93894 20.1308C12.7433 20.1308 15.2682 18.9099 17.0081 16.9704C17.0314 16.9438 17.058 16.9172 17.0813 16.8873C17.0813 16.8839 17.0846 16.8839 17.0846 16.8806C18.5483 15.2106 19.4366 13.0217 19.4366 10.6331C19.4366 5.39688 15.1749 1.13574 9.93894 1.13574ZM6.42939 2.5396C6.42939 2.53628 6.43272 2.53295 6.43272 2.52962C7.50724 2.06057 8.69485 1.80108 9.93908 1.80108C10.7342 1.80108 11.5026 1.90753 12.2344 2.10713C11.8818 2.50301 11.5059 3.16502 11.8119 3.75051C12.0215 4.15636 12.1113 4.64206 12.0149 4.88158C11.9882 4.95476 11.9516 4.97472 11.9217 4.98471C11.4294 5.15437 10.0588 5.92281 9.98226 6.91749C9.94566 6.96074 9.69615 7.01396 9.3136 6.89753C8.9011 6.76779 8.40211 6.45175 8.34222 5.97605C8.16591 4.56887 6.97163 4.1098 6.55581 4.09981C6.49593 4.09981 6.46599 4.08318 6.42939 4.03328C6.25973 3.8004 6.25973 3.11843 6.42939 2.5396ZM3.34566 16.5016C1.95513 14.9414 1.10674 12.8856 1.10674 10.6334C1.10674 9.38927 1.36623 8.20163 1.83528 7.1271C2.01825 7.23687 3.14932 7.92882 3.7082 8.69396C4.41677 9.65868 4.99228 10.1377 6.34291 10.2342C7.26439 10.2974 8.25907 10.6035 8.9178 10.8064C9.13071 10.8729 9.30369 10.9262 9.42677 10.9561C9.79604 11.0492 10.0455 11.2122 10.1753 11.4451C10.3749 11.8044 10.2385 12.2435 10.2351 12.2435C10.2252 12.2768 10.2218 12.3067 10.2185 12.34C10.2185 12.3599 10.1919 12.8257 9.41679 12.8257C8.21588 12.8257 6.84191 13.6008 6.64241 14.3925C6.53596 14.815 5.72425 15.4903 4.86264 15.5136C4.01766 15.5402 3.55192 16.1356 3.34566 16.5016ZM9.93915 19.4657C7.57398 19.4657 5.4249 18.5309 3.84131 17.0106V17.0073C3.85461 16.974 4.14404 16.2023 4.88255 16.179C6.0369 16.1457 7.10486 15.2941 7.28775 14.5556C7.38755 14.153 8.42548 13.491 9.41681 13.491C10.5013 13.491 10.8439 12.8091 10.8805 12.4099C10.9271 12.2435 11.0535 11.6647 10.7608 11.1291C10.5412 10.7266 10.1454 10.4505 9.58648 10.3107C9.47337 10.2808 9.31036 10.2309 9.11408 10.171C8.42546 9.96144 7.38754 9.64208 6.39292 9.5689C5.23193 9.48574 4.84603 9.1198 4.24726 8.30145C3.55531 7.35668 2.19803 6.56826 2.14148 6.53499C2.13483 6.53166 2.1315 6.52833 2.12485 6.52833C2.92657 4.99807 4.16743 3.73394 5.67783 2.90233C5.60464 3.40798 5.6113 4.04006 5.89406 4.42593C6.05041 4.64215 6.27329 4.75859 6.53942 4.76526C6.66916 4.76858 7.55405 5.02475 7.68047 6.05932C7.81021 7.08393 8.96789 7.63283 9.743 7.63283H9.77627C10.3784 7.61952 10.6179 7.28021 10.6445 6.97082C10.6878 6.43191 11.6359 5.78653 12.1382 5.61354C12.3677 5.5337 12.5407 5.36738 12.6339 5.12786C12.8401 4.6089 12.6372 3.89366 12.401 3.44123C12.2313 3.11523 12.6704 2.59293 12.8401 2.43657C12.8767 2.40331 12.9033 2.36339 12.9199 2.32014C14.6032 2.92226 16.0503 4.02671 17.0816 5.44731C16.7556 5.62695 15.6744 6.2324 15.1621 6.53845C14.4303 6.97757 13.9512 8.75076 14.0211 9.12335C14.1309 9.74209 13.8947 9.83192 13.3458 9.97829C13.0231 10.0648 12.6605 10.1613 12.5174 10.5039C12.1149 11.4653 12.4476 12.0575 12.6904 12.4933C12.8301 12.7428 12.91 12.8925 12.88 13.0355C12.8035 13.2085 12.1216 13.5911 11.6691 13.8406C10.7177 14.3728 9.89269 14.8319 9.85943 15.4241C9.85278 15.5937 9.906 15.8432 10.2087 16.0594C10.9539 16.5884 11.6625 16.7847 12.3178 16.6449C13.1062 16.4753 13.5287 15.8598 13.6052 15.7368C14.0843 15.108 14.6598 14.6356 14.8128 14.6589C14.8161 14.6623 14.9758 14.812 14.9126 15.6736C14.8627 16.3189 15.6012 16.6948 16.1668 16.8845C14.57 18.4813 12.3676 19.4657 9.93915 19.4657ZM16.6723 16.3419C16.1168 16.1988 15.5612 15.9227 15.5745 15.7231C15.6211 15.1011 15.6178 14.2528 15.0556 14.0399C14.347 13.7737 13.4288 14.8682 13.0662 15.3472C13.0596 15.3572 13.0496 15.3705 13.0429 15.3805C13.0429 15.3838 12.7402 15.8762 12.168 15.9959C11.7056 16.0924 11.1767 15.9327 10.5945 15.5169C10.5446 15.4803 10.528 15.457 10.5246 15.457C10.5646 15.2175 11.5293 14.6819 11.9917 14.4224C12.9165 13.9068 13.4421 13.5974 13.5286 13.1816C13.6151 12.7757 13.4322 12.453 13.2691 12.1669C13.0562 11.7844 12.8533 11.4218 13.1261 10.7664C13.166 10.7165 13.3856 10.6567 13.5186 10.6234C14.001 10.4936 14.9025 10.2541 14.6763 9.02326C14.6697 8.73716 15.0888 7.35661 15.5047 7.10711C16.0303 6.79107 17.2112 6.13572 17.4541 5.99934C18.2891 7.34663 18.7714 8.9334 18.7714 10.6335C18.7714 12.8091 17.9797 14.8017 16.6723 16.3419Z" fill="currentColor" stroke="currentColor" stroke-width="0.4"/>
</svg>
