<svg width="151" height="32" viewBox="0 0 151 32" fill="none" xmlns="http://www.w3.org/2000/svg">
<g clip-path="url(#clip0_240_3084)">
<path d="M140.421 28.9531C136.126 30.0443 132.361 28.6652 129.515 24.9566C127.662 22.5466 126.617 19.822 125.836 17.4723C124.949 14.8012 124.605 12.5251 124.764 10.316C124.956 7.66504 125.929 5.75046 127.742 4.47853C130.984 2.18906 136.298 1.00416 140.593 5.17474C142.175 6.71444 143.445 8.6625 144.484 11.126C144.736 11.7218 144.981 12.3176 145.199 12.8599L145.484 13.5494V13.5628C146.331 16.2271 147.059 19.1057 146.708 22.0981C146.344 25.2511 144.061 27.8552 140.838 28.8393C140.699 28.8794 140.553 28.9196 140.414 28.9598M148.217 24.7089C149.752 22.1181 150.5 19.1057 150.5 15.5175C150.473 13.0205 150.195 11.0189 149.626 9.21813C148.567 5.83748 146.655 3.41413 143.783 1.80079C142.003 0.796637 139.964 0.227617 137.562 0.0602577C137.139 0.0334803 136.715 0.0133972 136.298 0.0133972C133.843 0.0133972 131.52 0.528862 129.383 1.5464C125.518 3.38735 122.964 6.44667 121.799 10.644C120.648 14.7878 120.774 18.9986 122.163 23.1558C123.01 25.6795 124.513 27.7079 126.637 29.1807C129.873 31.4367 133.704 32.2132 138.012 31.5036C142.552 30.7539 145.98 28.4711 148.21 24.7022" fill="currentColor"/>
<path d="M96.9973 21.2412L96.2363 21.5424L102.946 5.13456L109.22 20.3441L108.565 20.1969C104.76 19.3266 100.974 19.668 96.9907 21.2479M112.31 27.092C112.681 28.779 112.151 30.1246 110.775 31.0216H118.809C118.683 30.8141 118.557 30.6066 118.432 30.3991C117.942 29.5957 117.432 28.7723 117.048 27.9021L116.691 27.0987C114.481 22.1382 112.198 17.0103 110.1 11.9092C109.101 9.4792 108.207 6.96882 107.341 4.53877C106.904 3.3137 106.454 2.04847 105.997 0.810013C105.984 0.783235 105.924 0.72968 105.885 0.702903C104.27 0.689514 102.662 0.689514 100.968 0.689514H100.319C101.047 1.8945 101.213 2.9589 100.842 4.03669C100.65 4.59232 100.472 5.16804 100.293 5.72367C99.9752 6.72782 99.6509 7.76545 99.2473 8.75621C97.1098 14.0247 95.323 18.3091 93.629 22.2386C92.6628 24.4746 91.5577 26.6837 90.4856 28.8259L90.2209 29.3547C89.9496 29.897 89.5989 30.3924 89.2614 30.8743C89.2283 30.9212 89.1952 30.9681 89.1621 31.0149H95.7797C94.3304 29.7296 93.9665 28.3171 94.5157 26.3289C94.6348 25.9004 94.7804 25.4787 94.926 25.0637C95.0451 24.7089 95.1775 24.3474 95.2767 23.9926C95.4091 23.5306 95.6936 23.2428 96.19 23.0487C98.2612 22.2453 100.491 21.8303 102.808 21.8169C104.33 21.8035 106.123 21.8771 107.843 22.4796C110.371 23.37 111.84 24.8762 112.324 27.092" fill="currentColor"/>
<path d="M35.95 21.5424L42.6668 5.13458L48.9337 20.3441L48.2785 20.1969C44.4734 19.3266 40.6882 19.668 36.7044 21.2479L35.9434 21.5491L35.95 21.5424ZM48.9601 23.1022C51.0248 24.267 52.0902 25.954 52.1167 28.1096C52.1299 29.3681 51.5741 30.3723 50.502 31.0216H58.5754C58.3041 30.6468 58.0526 30.2853 57.821 29.9104C57.4571 29.3146 57.1394 28.6987 56.8813 28.1765C53.7711 21.9307 51.1439 15.4372 48.7682 9.34532C47.941 7.2366 47.1932 5.06094 46.4719 2.95891C46.2271 2.256 45.9888 1.5464 45.7374 0.843495C45.6911 0.702914 45.6844 0.682831 45.433 0.682831C44.3146 0.682831 43.1896 0.682831 42.0713 0.682831C41.3896 0.682831 40.708 0.682831 40.0331 0.682831C40.9463 2.29617 41.0058 2.89866 40.2779 4.93374L40.1985 5.16135C39.2059 7.9462 38.1735 10.8248 37.0353 13.6096C35.5662 17.1777 33.9184 21.0002 31.8471 25.6327C31.0927 27.3264 30.1795 29.2543 28.8428 31.0283H35.4802C34.2162 29.9639 33.6934 28.4041 34.1037 26.8176C34.2295 26.3423 34.3817 25.867 34.5339 25.4118C34.6728 24.9967 34.8118 24.5616 34.9243 24.1398C35.1162 23.4235 35.6191 23.1491 36.089 22.9683C38.2 22.1583 40.4764 21.77 43.0308 21.7968C44.7447 21.8102 46.9682 21.9709 48.9667 23.0955" fill="currentColor"/>
<path d="M1.36721 10.1888C0.6856 12.3377 0.407663 14.6941 0.526779 17.3986C0.645895 20.0563 1.10912 22.1985 1.99588 24.1398C3.73629 27.9623 6.80683 30.3857 11.1149 31.3363C13.8281 31.9387 16.7993 31.8852 20.1875 31.1756C21.6103 30.881 23.1389 30.6133 24.8661 30.3723C25.0647 30.3455 25.1044 30.312 25.111 30.312C25.111 30.312 25.1308 30.2719 25.1308 30.0978C25.1176 28.5782 25.1242 27.0385 25.1308 25.5456C25.1308 25.0369 25.1308 24.5214 25.1308 24.0126C23.172 28.0226 19.9228 29.9505 15.4692 29.7564C11.684 29.5823 8.88474 27.882 7.15756 24.6955C5.90023 22.3725 5.52303 19.8487 5.33774 17.9074C5.02671 14.6338 5.16568 11.9494 5.78111 9.45911C6.27743 7.44411 7.08477 5.85085 8.26269 4.58562C9.5862 3.15972 11.32 2.31624 13.4244 2.08193C16.5611 1.74052 19.089 2.2426 21.1537 3.62833C22.8412 4.75967 24.0853 6.33954 25.0779 8.61562C25.0977 8.66248 25.1176 8.70265 25.1374 8.74951C25.1374 8.0533 25.1374 7.36378 25.1374 6.66756C25.1374 5.01406 25.1374 3.36055 25.1374 1.70705C25.1374 1.66019 25.1374 1.63341 25.1308 1.62002C25.111 1.61333 25.058 1.59994 24.9522 1.57986C24.1514 1.46605 23.3706 1.32547 22.636 1.16481C22.1331 1.051 21.6301 0.930504 21.1404 0.810006C20.3463 0.61587 19.5258 0.408345 18.7052 0.267763C17.6795 0.09371 16.6736 0.00668335 15.681 0.00668335C13.2788 0.00668335 10.9891 0.515454 8.84504 1.533C5.15906 3.27353 2.64439 6.18557 1.36721 10.1888Z" fill="currentColor"/>
<path d="M85.1315 30.3723C85.3367 30.3455 85.3764 30.312 85.3896 30.312C85.3896 30.312 85.4094 30.2718 85.4094 30.1112C85.3962 28.5715 85.3962 27.005 85.4028 25.4921C85.4028 25.0168 85.4028 24.5348 85.4028 24.0595C83.4176 28.1899 79.7448 30.1982 75.0265 29.7162C71.056 29.3079 68.2766 27.1389 66.7612 23.2495C66.1259 21.6094 65.7421 19.7684 65.57 17.4589C65.3186 14.1184 65.4906 11.5678 66.1259 9.18464C66.6884 7.07592 67.5354 5.52952 68.7862 4.32454C70.3281 2.84509 72.3133 2.07524 74.8677 1.98821C78.9507 1.84093 82.0279 3.26683 84.0264 6.21904C84.5558 7.00228 84.9793 7.85246 85.383 8.68256C85.383 6.36632 85.3962 4.00321 85.383 1.67357C85.3565 1.6468 85.3168 1.59994 85.2903 1.59324C84.6551 1.44597 83.9867 1.30539 83.3382 1.1715C82.511 0.997445 81.6573 0.816698 80.8169 0.615867C79.1757 0.2209 77.614 0.0267639 76.0919 0.0267639C74.5699 0.0267639 73.2398 0.207511 71.8567 0.569007C68.2237 1.5196 65.3781 3.50783 63.4127 6.48012C62.1289 8.42148 61.3216 10.6507 61.0105 13.1209C60.4348 17.6731 60.9047 21.3215 62.4995 24.5883C64.2068 28.0962 67.1318 30.3589 71.2016 31.3028C73.9942 31.9521 77.0382 31.912 80.5125 31.1689C81.8426 30.8877 83.3117 30.6333 85.1381 30.3723" fill="currentColor"/>
</g>
<defs>
</defs>
</svg>
